<svg id="Layer_1" enable-background="new 0 0 512 512" height="512" viewBox="0 0 512 512" width="512" xmlns="http://www.w3.org/2000/svg"><g><path d="m344.618 94.191c-1.065-48.761-40.731-87.153-89.502-86.687-48.497.463-87.803 40.055-87.803 88.659 0 38.207 24.29 70.843 58.238 83.284 9.506 3.484 17.127 10.773 20.876 20.177l7.903 19.826c.676 1.697 3.082 1.688 3.745-.014l7.658-19.639c3.69-9.465 11.265-16.886 20.798-20.397 34.466-12.692 58.939-46.206 58.087-85.209z" fill="#7edbb0"/><path d="m344.618 94.191c-1.065-48.761-40.731-87.153-89.502-86.687-48.497.463-87.803 40.055-87.803 88.659 0 38.207 24.29 70.843 58.238 83.284 9.506 3.484 17.127 10.773 20.876 20.177l7.903 19.826c.676 1.697 3.082 1.688 3.745-.014l7.658-19.639c3.69-9.465 11.265-16.886 20.798-20.397 34.466-12.692 58.939-46.206 58.087-85.209z" fill="#7edbb0"/><path d="m344.618 94.191c-1.064-48.761-40.731-87.153-89.502-86.687-4.787.046-9.483.479-14.063 1.258 41.201 6.972 72.619 42.106 73.565 85.429.852 39.003-23.621 72.517-58.086 85.209-6.131 2.258-11.445 6.14-15.444 11.137 2.201 2.718 4.016 5.768 5.339 9.087l7.903 19.826c.676 1.697 3.082 1.688 3.745-.014l7.657-19.639c3.69-9.465 11.265-16.886 20.798-20.397 34.467-12.692 58.94-46.206 58.088-85.209z" fill="#51d39e"/><path d="m382.765 504.5h-253.577c-17.027 0-30.83-13.803-30.83-30.83v-21.71c0-3.414 2.767-6.181 6.181-6.181h302.876c3.414 0 6.181 2.767 6.181 6.181v21.709c0 17.028-13.803 30.831-30.831 30.831z" fill="#e49a6b"/><path d="m407.415 445.779h-30c3.414 0 6.181 2.767 6.181 6.181v21.709c0 17.027-13.803 30.83-30.831 30.83h30c17.027 0 30.831-13.803 30.831-30.83v-21.709c0-3.413-2.768-6.181-6.181-6.181z" fill="#e0925b"/><path d="m407.422 389.95h-302.89c-3.494 0-6.289-2.882-6.179-6.374.855-27.266 13.482-132.702 157.625-132.702s156.768 105.436 157.623 132.702c.11 3.492-2.685 6.374-6.179 6.374z" fill="#e49a6b"/><path d="m255.977 250.874c-5.174 0-10.159.151-15 .414 130.015 7.07 141.8 106 142.625 132.287.11 3.492-2.686 6.374-6.179 6.374h30c3.494 0 6.289-2.882 6.179-6.374-.856-27.265-13.482-132.701-157.625-132.701z" fill="#e0925b"/><path d="m406.977 445.779h-302c-8.284 0-15-6.716-15-15 0-8.284 6.716-15 15-15h302c8.284 0 15 6.716 15 15 0 8.284-6.716 15-15 15z" fill="#7edbb0"/><path d="m406.977 415.779h-30c8.284 0 15 6.716 15 15 0 8.284-6.716 15-15 15h30c8.284 0 15-6.716 15-15 0-8.284-6.716-15-15-15z" fill="#51d39e"/><path d="m406.977 415.779h-302c-8.284 0-15-6.716-15-15 0-8.284 6.716-15 15-15h302c8.284 0 15 6.716 15 15 0 8.284-6.716 15-15 15z" fill="#e07f5d"/><path d="m406.977 385.779h-30c8.284 0 15 6.716 15 15 0 8.284-6.716 15-15 15h30c8.284 0 15-6.716 15-15 0-8.284-6.716-15-15-15z" fill="#d06d4a"/><g><path d="m429.477 400.78c0-7.065-3.276-13.377-8.386-17.505-.552-41.171-23.313-98.221-76.55-122.262-48.889-24.681-138.527-23.544-184.983 4.073-21.081 11.781-37.75 28.27-49.545 49.011-2.048 3.601-.789 8.179 2.812 10.227 3.6 2.048 8.18.789 10.227-2.812 23.825-41.896 68.548-63.139 132.926-63.139 128.095 0 147.311 85.588 149.83 119.909h-299.655c.518-6.891 1.736-15.932 4.459-26.114 1.07-4.002-1.307-8.113-5.308-9.183-3.998-1.067-8.113 1.307-9.183 5.308-3.887 14.538-5.006 27.036-5.258 34.984-9.902 7.684-11.243 23.256-2.638 32.505-8.757 9.42-7.185 25.267 3.063 32.839-.271 1.072-.43 2.187-.43 3.342v21.71c0 21.136 17.195 38.33 38.331 38.33h178.357c9.931-.344 9.923-14.66 0-15h-178.358c-12.865 0-23.331-10.466-23.331-23.33v-20.393h300.238v20.391c0 12.864-10.466 23.33-23.33 23.33h-41.713c-9.931.344-9.923 14.66 0 15h41.713c21.136 0 38.33-17.194 38.33-38.33v-21.71c0-1.155-.159-2.27-.43-3.342 10.251-7.576 11.818-23.422 3.063-32.839 3.572-3.984 5.749-9.242 5.749-15zm-332 0c0-4.136 3.364-7.5 7.5-7.5h302c9.929.353 9.922 14.65 0 15h-302c-4.136 0-7.5-3.365-7.5-7.5zm7.5 37.5c-9.929-.353-9.922-14.65 0-15h302c9.929.353 9.922 14.65 0 15z"/><path d="m211.02 282.177-8.114-5.846c-3.361-2.422-8.049-1.66-10.469 1.701-2.421 3.36-1.66 8.048 1.701 10.469l8.114 5.846c3.325 2.406 8.034 1.683 10.469-1.701 2.421-3.361 1.66-8.048-1.701-10.469z"/><path d="m303.79 303.446c1.757 0 3.521-.613 4.944-1.863l7.516-6.597c7.237-6.809-2.213-17.563-9.895-11.273l-7.516 6.597c-3.113 2.732-3.422 7.471-.689 10.584 1.483 1.689 3.556 2.552 5.64 2.552z"/><path d="m250.981 310.486c.174 0 .349-.006.525-.018l9.976-.689c4.133-.286 7.251-3.867 6.966-7.999-.286-4.134-3.878-7.241-7.999-6.966l-9.977.689c-4.132.286-7.25 3.867-6.965 7.999.273 3.958 3.567 6.984 7.474 6.984z"/><path d="m284.18 323.644c-2.719 3.125-2.39 7.862.735 10.581l7.544 6.563c3.112 2.711 7.854 2.399 10.581-.735 2.719-3.125 2.39-7.862-.735-10.581l-7.544-6.563c-3.125-2.719-7.862-2.389-10.581.735z"/><path d="m203.119 324.969c-3.8 1.65-5.542 6.067-3.893 9.867 1.651 3.838 6.159 5.528 9.866 3.893l9.172-3.982c3.8-1.65 5.542-6.067 3.893-9.867-1.649-3.799-6.065-5.54-9.866-3.893z"/><path d="m157.233 328.031c1.555 0 3.124-.481 4.468-1.48l8.026-5.965c3.325-2.471 4.017-7.169 1.546-10.493-2.47-3.325-7.169-4.017-10.493-1.546l-8.026 5.965c-3.325 2.471-4.017 7.169-1.546 10.493 1.471 1.98 3.733 3.026 6.025 3.026z"/><path d="m352.305 326.551c3.292 2.455 8.009 1.798 10.493-1.546 2.471-3.324 1.778-8.022-1.546-10.493l-8.026-5.965c-3.323-2.471-8.022-1.78-10.493 1.546-2.471 3.324-1.778 8.022 1.546 10.493z"/><path d="m222.971 186.491c7.551 2.768 13.562 8.566 16.489 15.912l7.903 19.825c1.452 3.643 4.917 5.991 8.835 5.991h.035c3.933-.014 7.399-2.39 8.83-6.057l7.657-19.64c2.906-7.453 8.885-13.315 16.403-16.084 38.574-14.205 63.889-51.342 62.992-92.411-.355-16.268-4.796-32.225-12.842-46.146-2.072-3.586-6.66-4.815-10.246-2.74-3.586 2.072-4.813 6.66-2.74 10.246 6.785 11.741 10.531 25.217 10.832 38.969.757 34.666-20.614 66.014-53.18 78.007-11.546 4.252-20.729 13.259-25.194 24.711l-2.602 6.673-2.75-6.898c-4.504-11.301-13.712-20.209-25.262-24.441-84.029-32.391-62.895-154.922 27.056-157.401 18.48-.202 35.924 5.625 50.415 16.777 3.284 2.526 7.991 1.914 10.518-1.369 2.526-3.282 1.913-7.991-1.369-10.518-17.178-13.221-37.833-20.133-59.706-19.891-106.639 2.96-131.561 148.151-32.074 186.485z"/><path d="m269.956 109.763c2.728 3.133 7.471 3.443 10.581.731l24.492-21.325c3.406-2.829 3.4-8.498-.01-11.321l-24.492-21.253c-3.127-2.714-7.865-2.38-10.58.75-2.714 3.128-2.379 7.865.75 10.58l9.32 8.088h-26.851c-17.332 0-31.432 14.101-31.432 31.432v23.606c.344 9.931 14.66 9.923 15 0v-23.606c0-9.061 7.372-16.432 16.432-16.432h26.903l-9.382 8.169c-3.123 2.719-3.45 7.456-.731 10.581z"/></g></g></svg>